<svg width="216" height="48" viewBox="0 0 216 48" fill="none" xmlns="http://www.w3.org/2000/svg">
<path d="M7.72801 47.68C6.06401 47.68 4.57067 47.5093 3.24801 47.168C1.96801 46.8267 0.965339 46.3573 0.240005 45.76V3.2C0.240005 2.13333 0.410672 1.38667 0.752006 0.959999C1.13601 0.533333 1.75467 0.277332 2.60801 0.191998C3.46134 0.0639992 5.04001 0 7.34401 0V16.256C8.83734 15.0187 10.672 14.4 12.848 14.4C15.408 14.4 17.2427 15.3813 18.352 17.344C19.504 19.3067 20.08 22.656 20.08 27.392C20.08 33.024 19.4613 37.3333 18.224 40.32C17.0293 43.3067 15.536 45.2907 13.744 46.272C11.9947 47.2107 9.98934 47.68 7.72801 47.68ZM8.81601 41.472C9.66934 41.472 10.416 40.5547 11.056 38.72C11.7387 36.8427 12.08 33.4933 12.08 28.672C12.08 25.8133 11.8667 23.7867 11.44 22.592C11.056 21.3547 10.4373 20.736 9.58401 20.736C8.73067 20.736 7.98401 21.056 7.34401 21.696V40.96C7.77067 41.3013 8.26134 41.472 8.81601 41.472Z" fill="#FF5C00"/>
<path d="M32.8295 47.68C30.3122 47.68 28.3495 47.2747 26.9415 46.464C25.5335 45.6107 24.4668 43.9893 23.7415 41.6C23.0588 39.2107 22.7175 35.6693 22.7175 30.976C22.7175 19.9253 26.2588 14.4 33.3415 14.4C35.7308 14.4 37.6295 14.8907 39.0375 15.872C40.4882 16.8107 41.5548 18.4533 42.2375 20.8C42.9628 23.1467 43.3255 26.4533 43.3255 30.72C43.3255 36.736 42.4508 41.0667 40.7015 43.712C38.9948 46.3573 36.3708 47.68 32.8295 47.68ZM33.0215 41.792C33.5335 41.792 33.9602 41.5573 34.3015 41.088C34.6428 40.576 34.9202 39.5307 35.1335 37.952C35.3895 36.3307 35.5175 33.984 35.5175 30.912C35.5175 27.7973 35.4535 25.5147 35.3255 24.064C35.1975 22.5707 34.9628 21.568 34.6215 21.056C34.2802 20.544 33.7682 20.288 33.0855 20.288C32.2748 20.288 31.6348 21.0133 31.1655 22.464C30.7388 23.9147 30.5255 26.7307 30.5255 30.912C30.5255 34.112 30.6108 36.5013 30.7815 38.08C30.9948 39.616 31.2722 40.6187 31.6135 41.088C31.9548 41.5573 32.4242 41.792 33.0215 41.792Z" fill="#FF5C00"/>
<path d="M56.017 47.68C53.4997 47.68 51.537 47.2747 50.129 46.464C48.721 45.6107 47.6543 43.9893 46.929 41.6C46.2463 39.2107 45.905 35.6693 45.905 30.976C45.905 19.9253 49.4463 14.4 56.529 14.4C58.9183 14.4 60.817 14.8907 62.225 15.872C63.6757 16.8107 64.7423 18.4533 65.425 20.8C66.1503 23.1467 66.513 26.4533 66.513 30.72C66.513 36.736 65.6383 41.0667 63.889 43.712C62.1823 46.3573 59.5583 47.68 56.017 47.68ZM56.209 41.792C56.721 41.792 57.1477 41.5573 57.489 41.088C57.8303 40.576 58.1077 39.5307 58.321 37.952C58.577 36.3307 58.705 33.984 58.705 30.912C58.705 27.7973 58.641 25.5147 58.513 24.064C58.385 22.5707 58.1503 21.568 57.809 21.056C57.4677 20.544 56.9557 20.288 56.273 20.288C55.4623 20.288 54.8223 21.0133 54.353 22.464C53.9263 23.9147 53.713 26.7307 53.713 30.912C53.713 34.112 53.7983 36.5013 53.969 38.08C54.1823 39.616 54.4597 40.6187 54.801 41.088C55.1423 41.5573 55.6117 41.792 56.209 41.792Z" fill="#FF5C00"/>
<path d="M69.9245 3.136C69.9245 2.06933 70.1165 1.344 70.5005 0.959999C70.8845 0.533333 71.5032 0.277332 72.3565 0.191998C73.2525 0.0639992 74.8312 0 77.0925 0V16.256C79.2685 15.0187 81.5512 14.4 83.9405 14.4C85.9032 14.4 87.2685 14.9333 88.0365 16C88.8472 17.024 89.2525 18.304 89.2525 19.84C89.2525 21.9733 88.8685 23.872 88.1005 25.536C87.3325 27.1573 86.4578 28.48 85.4765 29.504C88.5058 31.7227 90.0632 35.7547 90.1485 41.6C90.1485 43.008 90.0845 44.4587 89.9565 45.952C89.9138 46.336 89.7645 46.592 89.5085 46.72C89.2525 46.848 88.4632 46.9333 87.1405 46.976C85.8178 47.0187 84.0472 47.04 81.8285 47.04C82.0418 44.608 82.1485 42.432 82.1485 40.512C82.1485 35.392 81.2098 32.832 79.3325 32.832C78.8205 32.832 78.3085 32.9813 77.7965 33.28C77.3272 33.5787 77.0925 33.7493 77.0925 33.792V45.76C77.0925 46.2293 76.9858 46.5493 76.7725 46.72C76.5592 46.848 75.8765 46.9333 74.7245 46.976C73.5725 47.0187 71.9725 47.04 69.9245 47.04V3.136ZM77.0925 29.056C78.5005 28.2453 79.5458 27.328 80.2285 26.304C80.9112 25.28 81.2525 24.0213 81.2525 22.528C81.2525 21.3333 80.8258 20.736 79.9725 20.736C78.9485 20.736 77.9885 21.3547 77.0925 22.592V29.056Z" fill="#FF5C00"/>
<path d="M99.7055 47.68C94.6708 47.68 92.1535 46.4213 92.1535 43.904C92.1535 42.6667 92.5375 41.344 93.3055 39.936C95.0548 40.8747 96.9322 41.344 98.9375 41.344C100.047 41.344 100.879 41.1093 101.434 40.64C101.988 40.128 102.266 39.4453 102.266 38.592C102.266 37.312 101.775 36.1173 100.794 35.008L95.2255 29.12C94.1588 28.0107 93.3695 26.8587 92.8575 25.664C92.3455 24.4693 92.0895 23.36 92.0895 22.336C92.0895 19.904 92.9215 17.984 94.5855 16.576C96.2495 15.1253 98.9375 14.4 102.65 14.4C105.807 14.4 107.898 14.8053 108.922 15.616C109.988 16.384 110.522 17.3227 110.522 18.432C110.522 18.9867 110.394 19.584 110.138 20.224C109.924 20.8213 109.604 21.3547 109.178 21.824C107.514 20.928 105.658 20.48 103.61 20.48C101.562 20.48 100.538 21.1413 100.538 22.464C100.538 22.8907 100.666 23.3387 100.922 23.808C101.178 24.2773 101.69 24.896 102.458 25.664L107.194 30.464C108.431 31.9147 109.263 33.216 109.69 34.368C110.159 35.4773 110.394 36.8427 110.394 38.464C110.394 41.3227 109.434 43.584 107.514 45.248C105.594 46.8693 102.991 47.68 99.7055 47.68Z" fill="#FF9052"/>
<path d="M124.303 40.768C126.351 40.768 128.612 40.1707 131.087 38.976C131.471 40.256 131.663 41.8347 131.663 43.712C131.663 44.9493 130.788 45.9307 129.039 46.656C127.332 47.3387 125.178 47.68 122.575 47.68C119.375 47.68 116.922 46.592 115.215 44.416C113.508 42.1973 112.655 38.2507 112.655 32.576C112.655 27.712 113.146 23.936 114.127 21.248C115.151 18.56 116.474 16.7467 118.095 15.808C119.716 14.8693 121.658 14.4 123.919 14.4C129.38 14.4 132.111 17.8773 132.111 24.832C132.111 28.544 131.812 31.5733 131.215 33.92C128.783 34.432 125.071 34.7307 120.079 34.816C120.207 36.992 120.57 38.528 121.167 39.424C121.764 40.32 122.81 40.768 124.303 40.768ZM123.023 20.544C122.042 20.544 121.316 21.248 120.847 22.656C120.42 24.064 120.164 26.2613 120.079 29.248C122.468 29.248 124.068 29.056 124.879 28.672C125.092 28.032 125.199 26.9227 125.199 25.344C125.199 23.3813 125.05 22.1013 124.751 21.504C124.452 20.864 123.876 20.544 123.023 20.544Z" fill="#FF9052"/>
<path d="M146.365 40.768C148.413 40.768 150.675 40.1707 153.15 38.976C153.534 40.256 153.725 41.8347 153.725 43.712C153.725 44.9493 152.851 45.9307 151.102 46.656C149.395 47.3387 147.24 47.68 144.637 47.68C141.437 47.68 138.984 46.592 137.277 44.416C135.571 42.1973 134.717 38.2507 134.717 32.576C134.717 27.712 135.208 23.936 136.189 21.248C137.213 18.56 138.536 16.7467 140.158 15.808C141.779 14.8693 143.72 14.4 145.982 14.4C151.443 14.4 154.173 17.8773 154.173 24.832C154.173 28.544 153.875 31.5733 153.277 33.92C150.845 34.432 147.133 34.7307 142.141 34.816C142.269 36.992 142.632 38.528 143.23 39.424C143.827 40.32 144.872 40.768 146.365 40.768ZM145.085 20.544C144.104 20.544 143.379 21.248 142.91 22.656C142.483 24.064 142.227 26.2613 142.141 29.248C144.531 29.248 146.131 29.056 146.941 28.672C147.155 28.032 147.262 26.9227 147.262 25.344C147.262 23.3813 147.112 22.1013 146.814 21.504C146.515 20.864 145.939 20.544 145.085 20.544Z" fill="#FF9052"/>
<path d="M157.612 3.136C157.612 2.06933 157.804 1.344 158.188 0.959999C158.572 0.533333 159.191 0.277332 160.044 0.191998C160.94 0.0639992 162.519 0 164.78 0V16.256C166.956 15.0187 169.239 14.4 171.628 14.4C173.591 14.4 174.956 14.9333 175.724 16C176.535 17.024 176.94 18.304 176.94 19.84C176.94 21.9733 176.556 23.872 175.788 25.536C175.02 27.1573 174.145 28.48 173.164 29.504C176.193 31.7227 177.751 35.7547 177.836 41.6C177.836 43.008 177.772 44.4587 177.644 45.952C177.601 46.336 177.452 46.592 177.196 46.72C176.94 46.848 176.151 46.9333 174.828 46.976C173.505 47.0187 171.735 47.04 169.516 47.04C169.729 44.608 169.836 42.432 169.836 40.512C169.836 35.392 168.897 32.832 167.02 32.832C166.508 32.832 165.996 32.9813 165.484 33.28C165.015 33.5787 164.78 33.7493 164.78 33.792V45.76C164.78 46.2293 164.673 46.5493 164.46 46.72C164.247 46.848 163.564 46.9333 162.412 46.976C161.26 47.0187 159.66 47.04 157.612 47.04V3.136ZM164.78 29.056C166.188 28.2453 167.233 27.328 167.916 26.304C168.599 25.28 168.94 24.0213 168.94 22.528C168.94 21.3333 168.513 20.736 167.66 20.736C166.636 20.736 165.676 21.3547 164.78 22.592V29.056Z" fill="#FF9052"/>
<path d="M190.928 40.768C192.976 40.768 195.237 40.1707 197.712 38.976C198.096 40.256 198.288 41.8347 198.288 43.712C198.288 44.9493 197.413 45.9307 195.664 46.656C193.957 47.3387 191.803 47.68 189.2 47.68C186 47.68 183.547 46.592 181.84 44.416C180.133 42.1973 179.28 38.2507 179.28 32.576C179.28 27.712 179.771 23.936 180.752 21.248C181.776 18.56 183.099 16.7467 184.72 15.808C186.341 14.8693 188.283 14.4 190.544 14.4C196.005 14.4 198.736 17.8773 198.736 24.832C198.736 28.544 198.437 31.5733 197.84 33.92C195.408 34.432 191.696 34.7307 186.704 34.816C186.832 36.992 187.195 38.528 187.792 39.424C188.389 40.32 189.435 40.768 190.928 40.768ZM189.648 20.544C188.667 20.544 187.941 21.248 187.472 22.656C187.045 24.064 186.789 26.2613 186.704 29.248C189.093 29.248 190.693 29.056 191.504 28.672C191.717 28.032 191.824 26.9227 191.824 25.344C191.824 23.3813 191.675 22.1013 191.376 21.504C191.077 20.864 190.501 20.544 189.648 20.544Z" fill="#FF9052"/>
<path d="M202.174 17.28C205.076 15.36 208.041 14.4 211.07 14.4C212.734 14.4 213.865 14.656 214.462 15.168C215.06 15.6373 215.359 16.448 215.359 17.6C215.359 19.008 215.124 20.3733 214.654 21.696C213.972 21.3547 213.182 21.184 212.286 21.184C211.86 21.184 211.39 21.2693 210.878 21.44C210.366 21.6107 209.897 21.8667 209.471 22.208L209.406 45.76C209.406 46.2293 209.3 46.5493 209.087 46.72C208.873 46.848 208.169 46.9333 206.975 46.976C205.823 47.0187 204.222 47.04 202.174 47.04V17.28Z" fill="#FF9052"/>
</svg>
