<svg width="216" height="49" viewBox="0 0 216 49" fill="none" xmlns="http://www.w3.org/2000/svg">
<path d="M7.72801 48.64C6.06401 48.64 4.57067 48.4694 3.24801 48.128C1.96801 47.7867 0.965339 47.3174 0.240005 46.72V4.16002C0.240005 3.09335 0.410672 2.34669 0.752006 1.92002C1.13601 1.49335 1.75467 1.23735 2.60801 1.15202C3.46134 1.02402 5.04001 0.960022 7.34401 0.960022V17.216C8.83734 15.9787 10.672 15.36 12.848 15.36C15.408 15.36 17.2427 16.3414 18.352 18.304C19.504 20.2667 20.08 23.616 20.08 28.352C20.08 33.984 19.4613 38.2934 18.224 41.28C17.0293 44.2667 15.536 46.2507 13.744 47.232C11.9947 48.1707 9.98934 48.64 7.72801 48.64ZM8.81601 42.432C9.66934 42.432 10.416 41.5147 11.056 39.68C11.7387 37.8027 12.08 34.4534 12.08 29.632C12.08 26.7734 11.8667 24.7467 11.44 23.552C11.056 22.3147 10.4373 21.696 9.58401 21.696C8.73067 21.696 7.98401 22.016 7.34401 22.656V41.92C7.77067 42.2614 8.26134 42.432 8.81601 42.432Z" fill="white"/>
<path d="M32.8295 48.64C30.3122 48.64 28.3495 48.2347 26.9415 47.424C25.5335 46.5707 24.4668 44.9494 23.7415 42.56C23.0588 40.1707 22.7175 36.6294 22.7175 31.936C22.7175 20.8854 26.2588 15.36 33.3415 15.36C35.7308 15.36 37.6295 15.8507 39.0375 16.832C40.4882 17.7707 41.5548 19.4134 42.2375 21.76C42.9628 24.1067 43.3255 27.4134 43.3255 31.68C43.3255 37.696 42.4508 42.0267 40.7015 44.672C38.9948 47.3174 36.3708 48.64 32.8295 48.64ZM33.0215 42.752C33.5335 42.752 33.9602 42.5174 34.3015 42.048C34.6428 41.536 34.9202 40.4907 35.1335 38.912C35.3895 37.2907 35.5175 34.944 35.5175 31.872C35.5175 28.7574 35.4535 26.4747 35.3255 25.024C35.1975 23.5307 34.9628 22.528 34.6215 22.016C34.2802 21.504 33.7682 21.248 33.0855 21.248C32.2748 21.248 31.6348 21.9734 31.1655 23.424C30.7388 24.8747 30.5255 27.6907 30.5255 31.872C30.5255 35.072 30.6108 37.4614 30.7815 39.04C30.9948 40.576 31.2722 41.5787 31.6135 42.048C31.9548 42.5174 32.4242 42.752 33.0215 42.752Z" fill="white"/>
<path d="M56.017 48.64C53.4997 48.64 51.537 48.2347 50.129 47.424C48.721 46.5707 47.6543 44.9494 46.929 42.56C46.2463 40.1707 45.905 36.6294 45.905 31.936C45.905 20.8854 49.4463 15.36 56.529 15.36C58.9183 15.36 60.817 15.8507 62.225 16.832C63.6757 17.7707 64.7423 19.4134 65.425 21.76C66.1503 24.1067 66.513 27.4134 66.513 31.68C66.513 37.696 65.6383 42.0267 63.889 44.672C62.1823 47.3174 59.5583 48.64 56.017 48.64ZM56.209 42.752C56.721 42.752 57.1477 42.5174 57.489 42.048C57.8303 41.536 58.1077 40.4907 58.321 38.912C58.577 37.2907 58.705 34.944 58.705 31.872C58.705 28.7574 58.641 26.4747 58.513 25.024C58.385 23.5307 58.1503 22.528 57.809 22.016C57.4677 21.504 56.9557 21.248 56.273 21.248C55.4623 21.248 54.8223 21.9734 54.353 23.424C53.9263 24.8747 53.713 27.6907 53.713 31.872C53.713 35.072 53.7983 37.4614 53.969 39.04C54.1823 40.576 54.4597 41.5787 54.801 42.048C55.1423 42.5174 55.6117 42.752 56.209 42.752Z" fill="white"/>
<path d="M69.9245 4.09602C69.9245 3.02935 70.1165 2.30402 70.5005 1.92002C70.8845 1.49335 71.5032 1.23735 72.3565 1.15202C73.2525 1.02402 74.8312 0.960022 77.0925 0.960022V17.216C79.2685 15.9787 81.5512 15.36 83.9405 15.36C85.9032 15.36 87.2685 15.8934 88.0365 16.96C88.8472 17.984 89.2525 19.264 89.2525 20.8C89.2525 22.9334 88.8685 24.832 88.1005 26.496C87.3325 28.1174 86.4578 29.44 85.4765 30.464C88.5058 32.6827 90.0632 36.7147 90.1485 42.56C90.1485 43.968 90.0845 45.4187 89.9565 46.912C89.9138 47.296 89.7645 47.552 89.5085 47.68C89.2525 47.808 88.4632 47.8934 87.1405 47.936C85.8178 47.9787 84.0472 48 81.8285 48C82.0418 45.568 82.1485 43.392 82.1485 41.472C82.1485 36.352 81.2098 33.792 79.3325 33.792C78.8205 33.792 78.3085 33.9414 77.7965 34.24C77.3272 34.5387 77.0925 34.7094 77.0925 34.752V46.72C77.0925 47.1894 76.9858 47.5094 76.7725 47.68C76.5592 47.808 75.8765 47.8934 74.7245 47.936C73.5725 47.9787 71.9725 48 69.9245 48V4.09602ZM77.0925 30.016C78.5005 29.2054 79.5458 28.288 80.2285 27.264C80.9112 26.24 81.2525 24.9814 81.2525 23.488C81.2525 22.2934 80.8258 21.696 79.9725 21.696C78.9485 21.696 77.9885 22.3147 77.0925 23.552V30.016Z" fill="white"/>
<path d="M99.7055 48.64C94.6708 48.64 92.1535 47.3814 92.1535 44.864C92.1535 43.6267 92.5375 42.304 93.3055 40.896C95.0548 41.8347 96.9322 42.304 98.9375 42.304C100.047 42.304 100.879 42.0694 101.434 41.6C101.988 41.088 102.266 40.4054 102.266 39.552C102.266 38.272 101.775 37.0774 100.794 35.968L95.2255 30.08C94.1588 28.9707 93.3695 27.8187 92.8575 26.624C92.3455 25.4294 92.0895 24.32 92.0895 23.296C92.0895 20.864 92.9215 18.944 94.5855 17.536C96.2495 16.0854 98.9375 15.36 102.65 15.36C105.807 15.36 107.898 15.7654 108.922 16.576C109.988 17.344 110.522 18.2827 110.522 19.392C110.522 19.9467 110.394 20.544 110.138 21.184C109.924 21.7814 109.604 22.3147 109.178 22.784C107.514 21.888 105.658 21.44 103.61 21.44C101.562 21.44 100.538 22.1014 100.538 23.424C100.538 23.8507 100.666 24.2987 100.922 24.768C101.178 25.2374 101.69 25.856 102.458 26.624L107.194 31.424C108.431 32.8747 109.263 34.176 109.69 35.328C110.159 36.4374 110.394 37.8027 110.394 39.424C110.394 42.2827 109.434 44.544 107.514 46.208C105.594 47.8294 102.991 48.64 99.7055 48.64Z" fill="#FF9052"/>
<path d="M124.303 41.728C126.351 41.728 128.612 41.1307 131.087 39.936C131.471 41.216 131.663 42.7947 131.663 44.672C131.663 45.9094 130.788 46.8907 129.039 47.616C127.332 48.2987 125.178 48.64 122.575 48.64C119.375 48.64 116.922 47.552 115.215 45.376C113.508 43.1574 112.655 39.2107 112.655 33.536C112.655 28.672 113.146 24.896 114.127 22.208C115.151 19.52 116.474 17.7067 118.095 16.768C119.716 15.8294 121.658 15.36 123.919 15.36C129.38 15.36 132.111 18.8374 132.111 25.792C132.111 29.504 131.812 32.5334 131.215 34.88C128.783 35.392 125.071 35.6907 120.079 35.776C120.207 37.952 120.57 39.488 121.167 40.384C121.764 41.28 122.81 41.728 124.303 41.728ZM123.023 21.504C122.042 21.504 121.316 22.208 120.847 23.616C120.42 25.024 120.164 27.2214 120.079 30.208C122.468 30.208 124.068 30.016 124.879 29.632C125.092 28.992 125.199 27.8827 125.199 26.304C125.199 24.3414 125.05 23.0614 124.751 22.464C124.452 21.824 123.876 21.504 123.023 21.504Z" fill="#FF9052"/>
<path d="M146.365 41.728C148.413 41.728 150.675 41.1307 153.15 39.936C153.534 41.216 153.725 42.7947 153.725 44.672C153.725 45.9094 152.851 46.8907 151.102 47.616C149.395 48.2987 147.24 48.64 144.637 48.64C141.437 48.64 138.984 47.552 137.277 45.376C135.571 43.1574 134.717 39.2107 134.717 33.536C134.717 28.672 135.208 24.896 136.189 22.208C137.213 19.52 138.536 17.7067 140.158 16.768C141.779 15.8294 143.72 15.36 145.982 15.36C151.443 15.36 154.173 18.8374 154.173 25.792C154.173 29.504 153.875 32.5334 153.277 34.88C150.845 35.392 147.133 35.6907 142.141 35.776C142.269 37.952 142.632 39.488 143.23 40.384C143.827 41.28 144.872 41.728 146.365 41.728ZM145.085 21.504C144.104 21.504 143.379 22.208 142.91 23.616C142.483 25.024 142.227 27.2214 142.141 30.208C144.531 30.208 146.131 30.016 146.941 29.632C147.155 28.992 147.262 27.8827 147.262 26.304C147.262 24.3414 147.112 23.0614 146.814 22.464C146.515 21.824 145.939 21.504 145.085 21.504Z" fill="#FF9052"/>
<path d="M157.612 4.09602C157.612 3.02935 157.804 2.30402 158.188 1.92002C158.572 1.49335 159.191 1.23735 160.044 1.15202C160.94 1.02402 162.519 0.960022 164.78 0.960022V17.216C166.956 15.9787 169.239 15.36 171.628 15.36C173.591 15.36 174.956 15.8934 175.724 16.96C176.535 17.984 176.94 19.264 176.94 20.8C176.94 22.9334 176.556 24.832 175.788 26.496C175.02 28.1174 174.145 29.44 173.164 30.464C176.193 32.6827 177.751 36.7147 177.836 42.56C177.836 43.968 177.772 45.4187 177.644 46.912C177.601 47.296 177.452 47.552 177.196 47.68C176.94 47.808 176.151 47.8934 174.828 47.936C173.505 47.9787 171.735 48 169.516 48C169.729 45.568 169.836 43.392 169.836 41.472C169.836 36.352 168.897 33.792 167.02 33.792C166.508 33.792 165.996 33.9414 165.484 34.24C165.015 34.5387 164.78 34.7094 164.78 34.752V46.72C164.78 47.1894 164.673 47.5094 164.46 47.68C164.247 47.808 163.564 47.8934 162.412 47.936C161.26 47.9787 159.66 48 157.612 48V4.09602ZM164.78 30.016C166.188 29.2054 167.233 28.288 167.916 27.264C168.599 26.24 168.94 24.9814 168.94 23.488C168.94 22.2934 168.513 21.696 167.66 21.696C166.636 21.696 165.676 22.3147 164.78 23.552V30.016Z" fill="#FF9052"/>
<path d="M190.928 41.728C192.976 41.728 195.237 41.1307 197.712 39.936C198.096 41.216 198.288 42.7947 198.288 44.672C198.288 45.9094 197.413 46.8907 195.664 47.616C193.957 48.2987 191.803 48.64 189.2 48.64C186 48.64 183.547 47.552 181.84 45.376C180.133 43.1574 179.28 39.2107 179.28 33.536C179.28 28.672 179.771 24.896 180.752 22.208C181.776 19.52 183.099 17.7067 184.72 16.768C186.341 15.8294 188.283 15.36 190.544 15.36C196.005 15.36 198.736 18.8374 198.736 25.792C198.736 29.504 198.437 32.5334 197.84 34.88C195.408 35.392 191.696 35.6907 186.704 35.776C186.832 37.952 187.195 39.488 187.792 40.384C188.389 41.28 189.435 41.728 190.928 41.728ZM189.648 21.504C188.667 21.504 187.941 22.208 187.472 23.616C187.045 25.024 186.789 27.2214 186.704 30.208C189.093 30.208 190.693 30.016 191.504 29.632C191.717 28.992 191.824 27.8827 191.824 26.304C191.824 24.3414 191.675 23.0614 191.376 22.464C191.077 21.824 190.501 21.504 189.648 21.504Z" fill="#FF9052"/>
<path d="M202.174 18.24C205.076 16.32 208.041 15.36 211.07 15.36C212.734 15.36 213.865 15.616 214.462 16.128C215.06 16.5974 215.359 17.408 215.359 18.56C215.359 19.968 215.124 21.3334 214.654 22.656C213.972 22.3147 213.182 22.144 212.286 22.144C211.86 22.144 211.39 22.2294 210.878 22.4C210.366 22.5707 209.897 22.8267 209.471 23.168L209.406 46.72C209.406 47.1894 209.3 47.5094 209.087 47.68C208.873 47.808 208.169 47.8934 206.975 47.936C205.823 47.9787 204.222 48 202.174 48V18.24Z" fill="#FF9052"/>
</svg>
